<svg width="351" height="333" viewBox="0 0 351 333" fill="none" xmlns="http://www.w3.org/2000/svg">
    <path d="M166.803 2.81451C162.536 5.48118 140.936 19.6145 80.0028 59.6145C52.6695 77.6145 52.2695 78.4145 62.6695 97.7478C66.2695 104.415 70.6695 112.681 72.5361 116.148C83.2028 136.415 93.0695 152.415 95.7361 153.615C101.869 156.281 113.069 151.615 109.736 147.481C108.536 145.881 103.736 137.214 93.2028 117.215C88.8028 108.948 88.0028 106.415 88.6695 102.281C90.4028 91.8812 90.9361 91.4812 142.803 56.9478C170.269 38.5478 193.336 23.0812 193.869 22.5478C195.603 20.9478 184.003 2.41451 180.403 1.08118C175.469 -0.78549 171.869 -0.252152 166.803 2.81451Z"
          fill="url(#paint0_linear_380_3)"/>
    <path d="M153.469 57.348C123.736 77.0813 98.4027 94.6813 97.2027 96.2813C92.2693 102.548 94.6693 109.215 114.136 142.548C116.403 146.548 121.203 155.081 124.536 161.348C131.203 173.748 132.403 175.081 137.469 176.281C141.603 177.348 143.736 176.015 185.469 148.548C203.469 136.681 226.003 121.881 235.469 115.615C245.069 109.348 254.003 102.948 255.469 101.215C260.403 95.748 258.936 90.2813 247.069 69.2146C241.069 58.548 235.603 48.948 234.803 47.8813C234.136 46.8146 231.203 41.6146 228.136 36.2813C221.336 24.0146 218.269 21.2146 212.269 21.2146C208.269 21.348 198.403 27.348 153.469 57.348ZM221.469 30.548C223.869 33.4813 225.203 36.548 224.669 37.348C224.003 38.4146 224.269 38.548 225.469 37.8813C226.803 37.0813 227.069 37.4813 226.536 39.6146C226.003 41.2146 226.403 42.2813 227.203 42.148C228.003 42.0146 229.869 44.2813 231.603 47.2146C233.203 50.148 235.069 53.2146 235.736 53.8813C238.136 56.948 242.803 66.4146 242.803 68.4146C242.803 69.748 243.336 70.4146 244.003 70.0146C245.469 69.0813 248.403 75.748 247.336 77.6146C246.803 78.548 246.936 78.8146 247.469 78.148C249.203 76.6813 255.069 88.0146 255.069 92.948C255.069 95.348 254.003 98.548 252.669 100.015C250.269 102.681 227.603 118.548 226.136 118.548C225.736 118.548 224.669 119.215 223.736 119.881C219.603 123.481 212.269 128.148 207.069 130.681C204.003 132.148 201.736 133.881 202.269 134.681C202.669 135.348 202.536 135.748 201.869 135.615C200.403 135.215 194.803 138.281 191.203 141.481C189.603 143.081 187.603 143.748 186.669 143.215C185.603 142.548 185.336 142.681 186.003 143.748C187.469 146.015 183.069 147.081 180.403 145.081C178.536 143.615 178.403 143.615 179.869 145.215C181.736 147.481 182.003 149.748 180.136 148.548C179.469 148.148 178.803 148.281 178.803 148.815C178.803 150.681 170.936 154.815 169.203 153.748C168.269 153.215 168.136 153.348 168.669 154.281C169.203 155.215 167.336 157.215 164.269 159.081C161.336 160.948 158.669 163.081 158.136 163.881C157.736 164.681 156.669 164.948 156.003 164.548C155.336 164.015 154.803 164.415 154.803 165.348C154.803 166.281 154.403 166.548 154.003 166.148C153.469 165.748 151.869 166.815 150.536 168.681C149.069 170.548 147.469 171.748 147.069 171.348C146.669 170.948 145.736 171.081 144.936 171.748C142.403 173.748 136.803 174.548 134.803 173.215C133.736 172.548 133.336 171.881 134.136 171.881C134.803 171.881 134.003 170.948 132.403 169.748C130.803 168.681 129.736 167.081 130.269 166.415C130.669 165.615 129.869 163.748 128.403 162.148C127.069 160.548 124.669 157.081 123.336 154.548C122.003 152.015 120.269 149.481 119.603 149.081C118.936 148.548 118.803 147.215 119.203 145.881C119.869 144.415 119.603 144.015 118.536 144.681C117.469 145.348 117.336 144.815 118.003 143.081C118.536 141.748 118.536 141.081 118.003 141.615C116.669 142.815 114.003 138.815 106.536 124.148C103.069 117.215 100.536 111.081 100.936 110.415C101.336 109.748 100.936 109.348 99.8693 109.481C98.6693 109.748 97.736 104.681 97.736 104.681C97.736 104.681 98.0027 98.8146 100.936 95.748C102.936 93.6146 105.336 91.8813 106.269 91.8813C107.069 91.8813 108.536 90.948 109.603 89.748C110.536 88.6813 113.469 86.548 116.003 85.2146C118.669 83.8813 122.269 81.4813 124.136 80.0146C125.869 78.4146 130.403 75.348 134.136 73.0813C140.936 68.948 148.936 63.6146 151.736 61.2146C152.669 60.548 153.869 59.8813 154.669 59.8813C155.336 59.8813 156.136 59.4813 156.403 58.8146C156.803 57.8813 166.403 51.0813 170.936 48.548C172.269 47.8813 178.003 44.0146 183.603 40.148C189.069 36.2813 194.269 33.6146 195.069 34.0146C196.003 34.548 196.136 34.2813 195.603 33.4813C195.069 32.548 195.469 31.8813 196.669 31.8813C197.736 31.8813 199.203 31.0813 199.736 30.148C200.269 29.2146 203.469 27.0813 206.669 25.4813C213.603 22.148 215.336 22.8146 221.469 30.548Z"
          fill="black"/>
    <path d="M186.803 43.8818C185.603 44.6818 185.469 45.2151 186.403 45.2151C187.203 45.2151 188.403 44.5485 188.803 43.8818C189.869 42.2818 189.336 42.2818 186.803 43.8818Z"
          fill="black"/>
    <path d="M238.803 63.7478C238.803 64.5478 239.336 65.4811 240.136 65.8811C240.936 66.2811 241.069 65.7478 240.669 64.6811C239.736 62.2811 238.803 61.8811 238.803 63.7478Z"
          fill="black"/>
    <path d="M233.069 110.681C234.003 111.614 235.069 112.014 235.469 111.614C235.869 111.214 235.203 110.414 233.869 110.014C232.003 109.214 231.869 109.348 233.069 110.681Z"
          fill="black"/>
    <path d="M247.736 43.2148C244.936 44.1481 242.269 45.2148 242.003 45.6148C241.736 45.8815 246.269 54.8148 252.269 65.3481C269.603 95.8815 268.803 100.948 244.936 116.548C236.803 121.748 214.669 136.415 195.736 148.948C176.803 161.615 160.269 172.415 159.069 173.081C157.069 174.281 157.336 175.481 161.869 184.548C167.736 196.015 172.403 199.615 178.536 197.481C182.003 196.281 204.936 181.748 250.136 152.148C261.869 144.415 275.336 135.748 280.136 132.815C291.203 126.148 295.736 121.748 296.803 116.948C297.736 112.681 297.069 111.348 269.069 61.2148C258.936 43.0814 255.736 40.4148 247.736 43.2148Z"
          fill="url(#paint1_linear_380_3)"/>
    <path d="M153.469 57.348C123.736 77.0813 98.4027 94.6813 97.2027 96.2813C92.2693 102.548 94.6693 109.215 114.136 142.548C116.403 146.548 121.203 155.081 124.536 161.348C131.203 173.748 132.403 175.081 137.469 176.281C141.603 177.348 143.736 176.015 185.469 148.548C203.469 136.681 226.003 121.881 235.469 115.615C245.069 109.348 254.003 102.948 255.469 101.215C260.403 95.748 258.936 90.2813 247.069 69.2146C241.069 58.548 235.603 48.948 234.803 47.8813C234.136 46.8146 231.203 41.6146 228.136 36.2813C221.336 24.0146 218.269 21.2146 212.269 21.2146C208.269 21.348 198.403 27.348 153.469 57.348ZM221.469 30.548C223.869 33.4813 225.203 36.548 224.669 37.348C224.003 38.4146 224.269 38.548 225.469 37.8813C226.803 37.0813 227.069 37.4813 226.536 39.6146C226.003 41.2146 226.403 42.2813 227.203 42.148C228.003 42.0146 229.869 44.2813 231.603 47.2146C233.203 50.148 235.069 53.2146 235.736 53.8813C238.136 56.948 242.803 66.4146 242.803 68.4146C242.803 69.748 243.336 70.4146 244.003 70.0146C245.469 69.0813 248.403 75.748 247.336 77.6146C246.803 78.548 246.936 78.8146 247.469 78.148C249.203 76.6813 255.069 88.0146 255.069 92.948C255.069 95.348 254.003 98.548 252.669 100.015C250.269 102.681 227.603 118.548 226.136 118.548C225.736 118.548 224.669 119.215 223.736 119.881C219.603 123.481 212.269 128.148 207.069 130.681C204.003 132.148 201.736 133.881 202.269 134.681C202.669 135.348 202.536 135.748 201.869 135.615C200.403 135.215 194.803 138.281 191.203 141.481C189.603 143.081 187.603 143.748 186.669 143.215C185.603 142.548 185.336 142.681 186.003 143.748C187.469 146.015 183.069 147.081 180.403 145.081C178.536 143.615 178.403 143.615 179.869 145.215C181.736 147.481 182.003 149.748 180.136 148.548C179.469 148.148 178.803 148.281 178.803 148.815C178.803 150.681 170.936 154.815 169.203 153.748C168.269 153.215 168.136 153.348 168.669 154.281C169.203 155.215 167.336 157.215 164.269 159.081C161.336 160.948 158.669 163.081 158.136 163.881C157.736 164.681 156.669 164.948 156.003 164.548C155.336 164.015 154.803 164.415 154.803 165.348C154.803 166.281 154.403 166.548 154.003 166.148C153.469 165.748 151.869 166.815 150.536 168.681C149.069 170.548 147.469 171.748 147.069 171.348C146.669 170.948 145.736 171.081 144.936 171.748C142.403 173.748 136.803 174.548 134.803 173.215C133.736 172.548 133.336 171.881 134.136 171.881C134.803 171.881 134.003 170.948 132.403 169.748C130.803 168.681 129.736 167.081 130.269 166.415C130.669 165.615 129.869 163.748 128.403 162.148C127.069 160.548 124.669 157.081 123.336 154.548C122.003 152.015 120.269 149.481 119.603 149.081C118.936 148.548 118.803 147.215 119.203 145.881C119.869 144.415 119.603 144.015 118.536 144.681C117.469 145.348 117.336 144.815 118.003 143.081C118.536 141.748 118.536 141.081 118.003 141.615C116.669 142.815 114.003 138.815 106.536 124.148C103.069 117.215 100.536 111.081 100.936 110.415C101.336 109.748 100.936 109.348 99.8693 109.481C98.6693 109.748 97.736 104.681 97.736 104.681C97.736 104.681 98.0027 98.8146 100.936 95.748C102.936 93.6146 105.336 91.8813 106.269 91.8813C107.069 91.8813 108.536 90.948 109.603 89.748C110.536 88.6813 113.469 86.548 116.003 85.2146C118.669 83.8813 122.269 81.4813 124.136 80.0146C125.869 78.4146 130.403 75.348 134.136 73.0813C140.936 68.948 148.936 63.6146 151.736 61.2146C152.669 60.548 153.869 59.8813 154.669 59.8813C155.336 59.8813 156.136 59.4813 156.403 58.8146C156.803 57.8813 166.403 51.0813 170.936 48.548C172.269 47.8813 178.003 44.0146 183.603 40.148C189.069 36.2813 194.269 33.6146 195.069 34.0146C196.003 34.548 196.136 34.2813 195.603 33.4813C195.069 32.548 195.469 31.8813 196.669 31.8813C197.736 31.8813 199.203 31.0813 199.736 30.148C200.269 29.2146 203.469 27.0813 206.669 25.4813C213.603 22.148 215.336 22.8146 221.469 30.548Z"
          fill="black"/>
    <path d="M235.336 235.348C229.602 240.948 233.336 249.215 241.736 249.215C246.269 249.215 250.802 244.948 250.802 240.815C250.802 237.082 249.602 235.348 245.869 233.348C241.469 231.082 239.069 231.482 235.336 235.348ZM244.536 236.815C244.136 237.748 244.669 238.815 245.736 239.215C246.802 239.615 247.736 240.815 247.736 241.882C247.736 243.348 247.202 243.482 246.002 242.415C244.802 241.482 244.536 241.748 244.669 243.348C244.936 246.415 250.003 246.615 247.469 244.215C246.403 243.148 249.869 242.815 249.469 243.215C249.969 241.715 247.602 242.082 247.736 240.215C247.736 238.482 246.203 238.448 246.469 238.715C244.969 237.715 246.536 237.648 247.469 236.715C249.736 234.448 245.469 234.548 244.536 236.815Z"
          fill="#444647"/>
    <path d="M153.469 57.348C123.736 77.0813 98.4027 94.6813 97.2027 96.2813C92.2693 102.548 94.6693 109.215 114.136 142.548C116.403 146.548 121.203 155.081 124.536 161.348C131.203 173.748 132.403 175.081 137.469 176.281C141.603 177.348 143.736 176.015 185.469 148.548C203.469 136.681 226.003 121.881 235.469 115.615C245.069 109.348 254.003 102.948 255.469 101.215C260.403 95.748 258.936 90.2813 247.069 69.2146C241.069 58.548 235.603 48.948 234.803 47.8813C234.136 46.8146 231.203 41.6146 228.136 36.2813C221.336 24.0146 218.269 21.2146 212.269 21.2146C208.269 21.348 198.403 27.348 153.469 57.348Z"
          fill="url(#paint2_radial_380_3)"/>
    <path d="M274.269 237.081C269.336 240.281 267.203 244.148 266.003 251.481C265.203 256.681 264.803 257.214 261.336 257.214C257.603 257.214 257.469 257.481 257.469 263.214C257.469 268.948 257.603 269.214 261.469 269.214H265.469V289.481V309.881H272.136H278.803V289.481V269.214H285.469H292.136V263.214V257.214H285.469C278.003 257.214 276.936 255.214 280.936 249.348C282.669 246.948 284.136 246.414 287.603 246.814L292.136 247.348V240.948V234.548H285.203C280.403 234.548 276.803 235.481 274.269 237.081Z"
          fill="#444647"/>
    <path d="M337.469 239.882C337.469 245.215 337.469 245.215 342.669 245.215C347.736 245.215 347.869 245.082 348.403 239.882L348.936 234.548H343.203H337.469V239.882Z"
          fill="#BB98E5"/>
    <path d="M206.803 250.548V263.748L203.336 260.548C199.469 256.948 191.603 255.214 185.203 256.548C169.069 259.881 159.603 279.614 166.669 295.214C169.736 302.014 177.336 308.681 184.003 310.548C190.536 312.281 200.136 310.281 203.603 306.414C206.536 303.081 208.136 303.214 207.736 306.681C207.469 309.214 208.136 309.481 213.736 309.614C217.336 309.748 220.136 309.348 220.136 308.814C220.136 308.281 220.136 292.014 220.136 272.548V237.214H213.469H206.803V250.548ZM207.736 273.215C208.003 305.082 212.503 280.748 209.969 280.215C206.369 279.415 207.803 289.782 208.469 288.715C209.536 287.115 207.369 293.715 204.969 295.715C198.569 301.048 191.969 300.715 184.969 299.215C184.969 297.748 184.136 296.815 183.469 297.215C181.469 298.415 181.969 295.715 179.469 294.215C180.536 293.415 179.036 290.715 177.969 290.715C177.469 289.715 175.369 290.148 176.969 287.215C177.903 285.482 177.169 284.715 175.969 284.715C177.469 283.215 174.636 282.648 175.969 281.715C176.903 281.182 178.103 278.882 177.969 278.215C177.303 275.682 178.336 275.348 182.469 271.881C189.269 266.281 197.836 264.648 201.969 269.715C202.769 270.782 205.869 274.715 206.803 274.715C209.469 274.715 211.203 259.214 210.136 254.681C209.603 252.148 209.869 249.748 210.803 248.548C211.736 247.348 211.869 246.548 210.936 245.881C208.936 244.814 206.303 253.815 208.969 254.215C210.703 254.482 207.603 247.748 207.736 273.215Z"
          fill="#444647"/>
    <path d="M200.536 264.682C201.203 265.882 199.469 266.148 194.536 265.748C189.736 265.482 186.536 266.015 183.869 267.615C179.336 270.282 173.736 279.348 174.136 283.215C174.536 287.482 178.669 296.148 181.203 298.148C182.536 299.348 182.669 299.748 181.469 299.082C180.403 298.548 180.003 298.682 180.536 299.215C182.403 301.348 195.336 302.415 200.136 300.948C204.803 299.482 206.803 298.148 206.136 297.215C205.736 296.548 206.803 294.682 208.403 293.082C210.136 291.482 210.669 290.682 209.603 291.215C208.269 292.015 208.003 291.748 208.936 290.415C210.536 287.882 210.936 279.615 209.603 277.882C208.936 277.215 208.669 275.215 208.803 273.482C208.936 271.748 208.403 270.015 207.736 269.615C206.936 269.215 206.803 269.482 207.336 270.282C209.069 273.082 206.003 272.015 203.336 268.948C201.603 266.815 201.469 266.415 203.069 267.615C204.803 269.082 205.469 269.082 206.269 267.615C206.803 266.682 206.669 266.282 206.136 266.948C205.469 267.482 203.869 266.815 202.403 265.615C200.936 264.282 200.136 263.882 200.536 264.682ZM198.003 269.748C200.403 270.815 203.469 272.948 204.669 274.682C208.936 280.815 206.269 293.882 200.269 297.215C198.803 297.882 195.336 298.548 192.403 298.548C179.603 298.548 173.203 283.082 182.003 273.348C186.936 267.882 191.203 266.948 198.003 269.748Z"
          fill="#444647"/>
    <path d="M169.603 286.015C169.603 287.481 170.003 287.881 170.403 286.815C170.803 285.881 170.669 284.681 170.269 284.281C169.869 283.748 169.469 284.548 169.603 286.015Z"
          fill="#444647"/>
    <path d="M325.469 250.948V256.815L330.536 256.548C335.336 256.281 335.469 256.015 335.869 250.681L336.269 245.215H330.936H325.469V250.948Z"
          fill="#F4AD8B"/>
    <path d="M18.136 257.348C12.536 258.948 4.93597 265.615 2.2693 271.215C0.935968 274.015 0.00263493 279.215 0.00263493 284.015C-0.130698 294.415 4.80264 302.948 13.336 307.748C25.6026 314.415 45.2026 310.281 50.936 299.615C52.0026 297.748 51.2026 296.815 46.8026 294.548L41.336 291.748L37.336 295.215C32.936 298.815 24.936 299.748 20.0026 297.215C14.2693 294.148 11.736 282.815 15.2026 276.015C16.0026 274.148 18.8026 271.481 21.2026 270.148C25.0693 267.881 26.4026 267.748 30.8026 269.081C33.736 269.881 36.936 271.748 37.8693 273.215C39.736 275.881 39.736 275.881 46.0026 273.215C51.336 270.815 52.0026 270.015 50.8026 268.015C45.8693 258.548 30.6693 253.615 18.136 257.348Z"
          fill="#414545"/>
    <path d="M75.8693 257.307C65.3359 260.507 58.4026 270.507 58.2693 282.64C58.1359 286.64 58.6693 291.573 59.2026 293.573C60.4026 298.24 67.3359 306.24 72.4026 308.773C78.0026 311.707 90.1359 311.44 94.4026 308.373C96.2693 307.04 100.789 300.253 100.669 303.806C100.55 307.359 99.9692 309.715 102.469 308.215C104.969 306.715 110.969 308.215 111.469 301.44C111.969 289.215 100.469 300.715 99.4693 300.773C98.4693 300.832 111.969 302.807 111.969 292.215C111.969 279.715 112.636 278.148 111.969 277.215C111.436 276.415 112.969 276.215 111.969 274.715C108.969 271.215 111.836 276.548 111.969 271.215C112.103 263.615 115.469 263.682 111.469 260.215C107.069 266.64 95.2026 267.973 95.6026 267.707C97.0693 266.107 81.2026 265.44 78.4026 266.907C71.3359 270.64 61.6026 282.374 61.4692 283.307C61.3359 284.24 62.2692 289.307 61.4692 289.307C60.8026 289.307 62.1026 297.482 63.9692 299.215C65.8359 300.948 66.3692 300.373 65.9692 300.773C65.4359 301.173 67.6692 302.307 68.4692 302.307C69.4026 302.307 68.9692 302.007 68.9692 302.807C68.9692 303.474 70.9026 303.34 69.9692 302.807C69.0359 302.274 70.9359 304.874 71.4692 305.807C72.0026 306.607 75.4026 308.907 76.4692 308.373C77.6692 307.973 82.6026 308.607 84.4692 309.807C86.4692 311.007 88.5026 309.607 87.9692 308.807C87.4359 308.007 90.9359 306.907 92.4026 307.307C93.8693 307.707 95.7026 305.04 97.9692 303.973C100.236 302.773 99.8693 297.84 99.4693 298.64C98.9359 299.44 95.1692 302.248 95.9692 301.715C98.2359 300.382 98.8026 301.707 96.6693 303.707C95.6026 304.64 94.8026 304.773 94.8026 303.973C94.8026 303.307 93.7359 303.707 92.4026 305.04C89.6026 307.84 76.1359 309.04 76.1359 306.64C76.1359 305.973 74.9359 305.307 73.4693 305.307C72.0026 305.307 70.8026 304.64 70.8026 303.84C70.8026 303.173 71.6026 302.907 72.5359 303.44C73.4693 303.973 73.7359 303.84 73.0693 303.173C72.4026 302.507 71.3359 301.84 70.6693 301.84C70.0026 301.707 68.9359 301.573 68.2693 301.44C62.5359 300.64 62.5692 290.615 66.9692 282.215C68.4359 279.415 69.7026 276.448 69.9692 276.715C70.3692 277.115 71.8359 273.215 73.9692 271.215C77.1692 268.282 74.2692 267.84 81.4692 267.707C88.2692 267.573 85.6962 264.907 87.1628 266.907C88.2295 268.24 90.1692 267.615 90.9692 267.215C91.6359 266.682 92.4359 266.907 92.9692 267.707C93.6359 268.773 92.9692 267.715 95.9692 268.715C98.9692 269.715 98.2693 266.507 99.4693 268.507C102.136 272.64 103.469 273.173 101.469 269.307C100.403 267.307 100.403 266.64 101.603 266.64C102.536 266.64 111.869 266.248 111.469 265.715C109.869 264.248 104.849 266.907 108.182 266.907L110.803 261.307V280.907C110.803 291.84 110.403 301.973 110.003 303.707C109.203 306.773 105.736 307.307 103.869 304.64C103.203 303.84 102.269 304.107 101.469 305.307C99.3359 308.64 100.669 309.573 107.203 309.84L113.603 309.973L113.869 283.573L114.136 257.307H107.069C100.136 257.307 100.136 257.307 100.936 260.907L101.869 264.64L98.6693 261.707C92.8026 256.373 84.4026 254.773 75.8693 257.307ZM91.3359 269.84C93.7359 270.907 96.8026 273.04 98.0026 274.773C102.269 280.907 99.6026 293.973 93.6026 297.307C92.1359 297.973 88.5359 298.64 85.4693 298.64C81.0693 298.64 79.0693 297.84 76.0026 294.773C67.3359 286.107 73.3359 268.64 85.2026 268.107C86.1359 267.973 88.9359 268.773 91.3359 269.84Z"
          fill="#424646"/>
    <path d="M151.336 257.348C147.069 258.548 136.503 265.882 137.969 267.215C138.369 267.615 145.736 264.281 148.003 262.681C150.803 260.681 140.473 263.515 140.873 264.715C141.406 266.048 149.969 270.548 149.969 269.215C152.536 268.715 151.303 264.548 151.969 267.215C152.636 269.615 155.869 265.214 148.536 265.748C145.469 265.881 134.469 265.528 136.469 266.728C137.003 266.995 128.469 271.215 130.469 274.715C128.469 274.182 130.969 274.282 130.969 277.215C130.969 278.415 130.503 281.482 129.969 281.215C129.303 280.815 129.836 283.982 129.969 291.715C130.103 305.048 129.969 306.715 131.469 306.715C130.936 306.715 133.069 304.814 132.136 302.681C131.069 300.014 130.803 293.481 131.336 281.614C131.736 272.281 136.836 267.148 136.969 266.215C136.969 264.215 130.136 262.082 131.469 264.215C132.136 265.148 138.536 263.881 137.336 263.214C135.869 262.414 129.003 269.248 130.469 270.715C132.469 272.848 139.336 268.414 137.203 267.081C136.269 266.414 136.136 266.681 136.803 267.881C138.403 270.414 141.469 265.748 141.469 260.948C141.469 257.348 141.203 257.214 134.803 257.214H128.136V283.481V309.881H134.803H141.469V294.814C141.469 282.814 142.003 278.814 143.736 275.748C146.136 271.614 153.203 268.548 157.603 269.614C159.869 270.281 160.136 269.614 160.136 263.081C160.136 255.214 159.736 254.948 151.336 257.348Z"
          fill="#444647"/>
    <path d="M234.803 283.615V310.015H241.469L248.136 309.882V283.482V257.215H241.469H234.803V283.615Z" fill="#444647"/>
    <path d="M294.803 258.281C294.803 258.948 299.469 270.415 305.203 284.015L315.736 308.548L311.069 319.215C308.669 325.081 306.269 330.548 306.003 331.348C305.603 332.281 308.003 332.815 312.536 332.815H319.736L324.136 322.015C326.536 316.015 333.603 299.481 339.736 285.081C345.736 270.815 350.803 258.548 350.803 258.148C350.803 257.615 347.603 257.215 343.869 257.215H336.803L330.136 275.215C324.136 291.348 321.469 296.415 321.469 291.615C321.469 290.681 318.669 282.681 315.203 273.615L308.803 257.215H301.869C298.003 257.215 294.803 257.748 294.803 258.281Z"
          fill="#444647"/>
    <defs>
        <linearGradient id="paint0_linear_380_3" x1="125.211" y1="154.398" x2="125.211" y2="0"
                        gradientUnits="userSpaceOnUse">
            <stop stop-color="#87D4EA"/>
            <stop offset="0.5" stop-color="#86D3ED"/>
            <stop offset="0.75" stop-color="#A4BEDF"/>
            <stop offset="0.875" stop-color="#A3B9DD"/>
            <stop offset="1" stop-color="#A3B3DA"/>
        </linearGradient>
        <linearGradient id="paint1_linear_380_3" x1="196.013" y1="198.064" x2="196.013" y2="21.2146"
                        gradientUnits="userSpaceOnUse">
            <stop stop-color="#F5A481"/>
            <stop offset="0.5" stop-color="#B397E0"/>
            <stop offset="0.75" stop-color="#C294DC"/>
            <stop offset="0.875" stop-color="#D69AC5"/>
            <stop offset="0.9375" stop-color="#DC9CB9"/>
            <stop offset="0.96875" stop-color="#E59DA9"/>
            <stop offset="0.984375" stop-color="#ED9F9B"/>
            <stop offset="1" stop-color="#A89CE6"/>
        </linearGradient>
        <radialGradient id="paint2_radial_380_3" cx="0" cy="0" r="1" gradientUnits="userSpaceOnUse"
                        gradientTransform="translate(340.969 92.7151) rotate(-156.496) scale(179.283 188.31)">
            <stop stop-color="#F4B492"/>
            <stop offset="0.5" stop-color="#F7C092"/>
            <stop offset="0.5625" stop-color="#F4B092"/>
            <stop offset="0.625" stop-color="#F4A793"/>
            <stop offset="0.75" stop-color="#F49F93"/>
            <stop offset="1" stop-color="#F29992"/>
        </radialGradient>
    </defs>
</svg>
