<svg width="186" height="104" viewBox="0 0 186 104" fill="none" xmlns="http://www.w3.org/2000/svg">
    <path fill-rule="evenodd" clip-rule="evenodd"
          d="M3.46631 96.5224H20.6768C19.4053 96.1796 18.4517 94.9061 18.4517 93.4204V3.2C18.4668 1.45306 19.7988 0 21.4336 0H145.827C147.447 0 148.794 1.45306 148.794 3.2V30.4L144.132 31.9347V16.4571H23.5376V92.5061H144.132V72.8816L145.676 72.6041C146.72 72.4082 147.704 72.049 148.597 71.5429L148.809 71.4939V93.3878C148.809 94.8735 147.855 96.1306 146.584 96.4898H164.582C166.489 96.4898 168.048 98.1714 168.048 100.229C168.048 102.302 166.489 103.967 164.582 103.967H3.46631C1.55908 104 0 102.318 0 100.245C0 98.2041 1.55908 96.5224 3.46631 96.5224ZM119.565 57.3061C121.154 59.151 122.925 62.9224 122.577 66.1878L144.071 62.2531C143.269 55.6898 141.483 49.6653 138.032 44.5551C131.069 49.649 127.073 52.8163 119.565 57.3061ZM84.7959 76.2122C94.8467 72.9959 105.594 84.5061 114.146 75.5755C116.417 73.2082 117.96 69.3878 117.764 65.8122C117.673 64.3755 117.325 62.9878 116.613 61.7633C116.295 61.2245 115.917 60.7184 115.478 60.2122C109.999 54.1878 101.507 56.5714 95.9214 61.1918C90.79 65.4531 87.1118 71.7878 84.7959 76.2122ZM140.893 43.9673C144.132 49.502 146.175 55.249 146.917 61.2408L181.837 40.8163C184.729 39.4122 186.575 37.9755 185.833 33.8939C185.258 32.5551 184.471 31.6571 183.472 31.2C182.488 30.7429 181.308 30.7429 179.915 31.2L140.893 43.9673ZM33.876 33.7633H134.157C134.747 33.7633 135.277 33.9918 135.686 34.3837C134.49 34.7102 133.339 35.2653 132.28 36.1143L132.068 36.2939C127.27 39.8041 130.584 37.3551 129.328 38.2857L128.571 38.8571H36.2373V65.1918H79.6646C78.5596 66.9714 77.5908 68.702 76.7583 70.2531H33.876C32.5742 70.2531 31.5298 69.1102 31.5298 67.7224V36.2939C31.5298 34.9061 32.5742 33.7633 33.876 33.7633ZM121.063 27.8694C119.762 27.8694 118.717 26.7429 118.717 25.3388C118.717 23.9347 119.777 22.8082 121.063 22.8082H130.524C131.826 22.8082 132.87 23.9347 132.87 25.3388C132.87 26.7429 131.826 27.8694 130.524 27.8694H121.063ZM97.6924 27.8694C96.3906 27.8694 95.3462 26.7429 95.3462 25.3388C95.3462 23.9347 96.4058 22.8082 97.6924 22.8082H107.153C108.455 22.8082 109.499 23.9347 109.499 25.3388C109.499 26.7429 108.439 27.8694 107.153 27.8694H97.6924ZM74.3062 27.8694C73.0044 27.8694 71.96 26.7429 71.96 25.3388C71.96 23.9347 73.0044 22.8082 74.3062 22.8082H83.7666C85.0684 22.8082 86.1128 23.9347 86.1128 25.3388C86.1128 26.7429 85.0684 27.8694 83.7666 27.8694H74.3062ZM37.9932 7.6898C39.2949 7.6898 40.3545 8.83265 40.3545 10.2367C40.3545 11.6408 39.2949 12.7837 37.9932 12.7837C36.6914 12.7837 35.6318 11.6408 35.6318 10.2367C35.6318 8.83265 36.7065 7.6898 37.9932 7.6898ZM45.9854 7.6898C47.2871 7.6898 48.3315 8.83265 48.3315 10.2367C48.3315 11.6408 47.272 12.7837 45.9854 12.7837C44.6987 12.7837 43.624 11.6408 43.624 10.2367C43.624 8.83265 44.6836 7.6898 45.9854 7.6898ZM30.0161 7.6898C31.3179 7.6898 32.3774 8.83265 32.3774 10.2367C32.3774 11.6408 31.3179 12.7837 30.0161 12.7837C28.7144 12.7837 27.6548 11.6408 27.6548 10.2367C27.6548 8.83265 28.7144 7.6898 30.0161 7.6898ZM79.1348 97.9265H88.8979C89.8213 97.9265 90.563 98.7429 90.563 99.7225C90.563 100.718 89.8062 101.518 88.8979 101.518H79.1348C78.2114 101.518 77.4697 100.702 77.4697 99.7225C77.4697 98.7102 78.2114 97.9265 79.1348 97.9265Z"
          fill="black"/>
</svg>
