<svg width="122" height="120" viewBox="0 0 122 120" fill="none" xmlns="http://www.w3.org/2000/svg">
    <g clip-path="url(#clip0_282_63)">
        <path d="M120.055 120H1.94401C0.870267 120 0 119.205 0 118.224V97.6137C0 89.6401 5.23586 82.5746 13.3391 79.6134L41.2849 69.4015C41.7741 69.2227 42.3223 69.2328 42.8025 69.4299C43.2833 69.627 43.6559 69.9935 43.8354 70.4464L52.0611 91.2231L54.7678 84.1144L52.3754 78.7722C52.1298 78.2246 52.1998 77.6006 52.5601 77.1099C52.9217 76.6185 53.5263 76.3237 54.1743 76.3237H67.8251C68.4731 76.3237 69.0783 76.6185 69.4392 77.1099C69.8002 77.6012 69.8695 78.2246 69.6239 78.7722L67.2322 84.115L69.9389 91.2237L78.1646 70.447C78.3434 69.9941 78.7167 69.6276 79.1975 69.4305C79.6777 69.2334 80.2259 69.2233 80.7151 69.4021L108.66 79.614C116.764 82.5752 122 89.6413 122 97.6143V118.225C121.999 119.205 121.13 120 120.055 120ZM3.88801 116.448H118.112V97.6137C118.112 91.1011 113.835 85.3297 107.216 82.9114L81.1376 73.3815L71.7312 97.1389C71.4513 97.8457 70.7139 98.3057 69.8909 98.3104C69.0673 98.3057 68.3376 97.828 68.0668 97.1176L63.3195 84.6466C63.164 84.2381 63.1763 83.7911 63.3564 83.391L64.9304 79.8751H57.0695L58.6442 83.3904C58.8237 83.7911 58.8366 84.2375 58.6818 84.6466L53.9339 97.1176C53.663 97.828 52.9327 98.3057 52.1097 98.3104C51.2628 98.3081 50.5493 97.8457 50.2694 97.1389L40.863 73.3815L14.7829 82.9114C8.16418 85.3297 3.88801 91.1005 3.88801 97.6137V116.448ZM105.133 112.231H83.3752C82.3014 112.231 81.4312 111.436 81.4312 110.455V98.2187C81.4312 97.2377 82.3014 96.4427 83.3752 96.4427H105.133C106.207 96.4427 107.077 97.2377 107.077 98.2187V110.455C107.077 111.436 106.207 112.231 105.133 112.231ZM85.3192 108.679H103.189V99.9947H85.3192V108.679ZM60.9997 68.9835C57.9903 68.9835 55.0562 68.4732 52.2782 67.4663C50.1314 66.6878 48.3572 65.7086 47.0061 64.556C43.2742 61.374 39.3946 54.5649 37.9645 51.9139C35.5358 51.8062 30.5546 50.6234 28.398 43.0914C27.3275 39.3512 27.5718 36.345 29.1238 34.157C29.9707 32.9623 31.0367 32.2591 31.9186 31.8506C31.9031 30.9176 31.9264 29.5578 32.0897 27.9286C30.7231 26.0218 27.7338 20.3357 32.866 12.0134C32.8673 12.0116 32.868 12.0104 32.8693 12.0086C32.8693 12.0086 32.8751 11.9992 32.8764 11.9968C32.8764 11.9968 32.903 11.9548 32.9049 11.9512C32.9094 11.9447 32.914 11.9376 32.9179 11.9311C32.923 11.9234 32.9276 11.9157 32.9321 11.908C32.9334 11.9062 32.9347 11.9045 32.936 11.9027C36.2952 6.53564 40.6414 5.40493 43.7013 5.40315H43.7032H43.7045H43.7077H43.709C44.4594 5.40315 45.1359 5.47301 45.7094 5.56832C47.1039 3.32939 51.0153 0 61.9289 0H61.9302C61.9367 0 61.9432 0 61.9496 0L62.4434 0.00236798C62.448 0.00236798 62.4525 0.00236798 62.457 0.00236798H62.4603C62.4667 0.00236798 62.4726 0.00236798 62.4778 0.00236798C69.6816 0.0751835 75.4255 2.48757 79.0031 4.52285C85.7993 7.56038 89.955 13.9066 90.9743 17.2005C91.4201 18.6431 91.6437 20.3203 91.6372 22.1845V22.1862V22.1874C91.6372 22.1874 91.6372 22.1916 91.6372 22.1939V22.1963V22.201C91.6372 22.2034 91.6372 22.207 91.6372 22.2099C91.6372 22.2123 91.6372 22.2152 91.6372 22.2176C91.6372 22.2206 91.6372 22.2241 91.6372 22.2271C91.6152 26.4942 90.4196 30.5867 90.0827 31.657C90.082 31.7227 90.0814 31.7866 90.0801 31.8482C90.962 32.2567 92.0286 32.96 92.8749 34.1546C94.4275 36.3432 94.6712 39.3488 93.6007 43.089C91.4448 50.621 86.4636 51.8044 84.0348 51.9121C82.6047 54.5631 78.7251 61.3722 74.9926 64.5548C73.6409 65.7074 71.8673 66.6866 69.7205 67.4645C66.9425 68.4732 64.0083 68.9835 60.9997 68.9835ZM39.1328 48.3193C39.8839 48.3193 40.6006 48.7083 40.9233 49.3411C40.9693 49.4323 45.6213 58.5165 49.659 61.9595C50.6543 62.8084 52.0177 63.5502 53.7116 64.1647C56.0314 65.0053 58.4828 65.4322 60.999 65.4322C63.5152 65.4322 65.9666 65.0059 68.2864 64.1647C69.9797 63.5508 71.3437 62.809 72.3397 61.9601C76.3774 58.5165 81.0294 49.4329 81.0754 49.3417C81.4551 48.597 82.3468 48.1879 83.2255 48.3501C83.2307 48.3501 83.3888 48.3714 83.637 48.3714C85.2926 48.3714 88.2994 47.5687 89.8384 42.1928C90.5985 39.5377 90.533 37.4461 89.6504 36.1449C88.9052 35.0468 87.7725 34.8206 87.7239 34.8117C86.7247 34.6596 86.0566 33.8379 86.1421 32.9156C86.1421 32.912 86.1907 32.365 86.1953 31.4551C86.1603 30.9584 85.8868 29.4589 85.0639 28.745C84.0686 28.0186 78.0123 26.9512 72.1557 25.9188C69.6939 25.4848 66.9043 24.9935 63.9636 24.4435C63.9604 24.4429 63.9565 24.4423 63.9526 24.4417C62.0306 24.1227 60.3731 23.6905 59.022 23.1583C54.0822 21.4918 50.6835 19.1019 48.6176 17.2786C47.8737 19.1629 46.6795 21.5007 44.8877 23.2684C41.7093 26.4048 37.8641 28.0654 35.9136 28.761C35.7062 31.2302 35.852 32.8978 35.854 32.9168C35.9382 33.8379 35.2345 34.6667 34.2365 34.8183C34.2236 34.8218 33.0909 35.048 32.3457 36.1461C31.4631 37.4473 31.3976 39.5388 32.1577 42.1939C33.6974 47.5705 36.7048 48.3726 38.3598 48.3726C38.6319 48.3726 38.7985 48.3471 38.7985 48.3471C38.9112 48.3276 39.0227 48.3193 39.1328 48.3193ZM47.739 11.8968C48.3837 11.8968 48.9974 12.1904 49.3615 12.6948C49.3907 12.7344 52.8031 17.2845 60.4171 19.8408C60.4541 19.8532 60.489 19.8656 60.5247 19.8798C61.6179 20.3155 63.0175 20.6761 64.6842 20.9513C64.7088 20.9555 64.7328 20.9596 64.7574 20.9644C67.6637 21.5078 70.4417 21.998 72.8937 22.4301C81.7331 23.9883 85.6924 24.7241 87.433 25.9288C87.6131 24.7626 87.7434 23.4869 87.7498 22.2117C87.7498 22.2093 87.7498 22.2064 87.7498 22.2034V22.1975V22.1916V22.1904V22.1862V22.1839V22.1827C87.7498 22.1827 87.7498 22.1791 87.7498 22.1768V22.1714C87.7544 20.7418 87.6027 19.4737 87.3014 18.3981C87.2794 18.3205 87.2574 18.2441 87.234 18.169C87.1867 18.0156 87.1304 17.8552 87.0662 17.6883C85.9471 14.7851 82.3021 9.95146 77.2632 7.70128C77.1835 7.66813 77.1064 7.63024 77.0319 7.58762C73.8858 5.7844 68.7984 3.62065 62.4363 3.55671C62.4311 3.55671 62.4253 3.55671 62.4207 3.55671L61.9296 3.55198C61.6192 3.55198 61.3165 3.55494 61.021 3.56027C61.0172 3.56027 61.0146 3.56027 61.0107 3.56027C50.0919 3.7722 48.8568 7.7587 48.7991 7.97478C48.7907 8.01977 48.7816 8.06476 48.7699 8.10976C48.7025 8.37201 48.5736 8.6094 48.3993 8.81009C48.2658 8.96342 48.1077 9.09306 47.9314 9.19666C47.6521 9.36124 47.3262 9.46187 46.9808 9.47845C46.7741 9.48911 46.5674 9.46898 46.3626 9.41748C46.2673 9.3932 46.1747 9.3636 46.0859 9.32749C45.9505 9.27836 45.0057 8.95454 43.7077 8.95454H43.7045C40.7405 8.95572 38.2444 10.5541 36.2855 13.7053C36.2842 13.7071 36.2829 13.7089 36.2816 13.7106L36.281 13.7118C36.2784 13.716 36.2758 13.7195 36.2732 13.7237C36.2693 13.7302 36.2654 13.7361 36.2615 13.7426C36.2602 13.745 36.259 13.7467 36.2577 13.7491L36.2551 13.7527C32.68 19.5471 33.9436 23.5401 34.9085 25.2972C36.5998 24.6501 39.5916 23.2655 42.0352 20.8542C44.3065 18.6135 45.5442 14.6649 45.8293 13.3323C45.9809 12.6243 46.5862 12.0708 47.3605 11.9311C47.4875 11.9074 47.6139 11.8968 47.739 11.8968Z" fill="black"/>
    </g>
    <defs>
        <clipPath id="clip0_282_63">
            <rect width="122" height="120" fill="white"/>
        </clipPath>
    </defs>
</svg>
